# xmcd
#
# Track frame offsets: 
#        150
#        4365
#        10989
#        32227
#        50164
#        57392
#        72382
#        76177
#        94059
#        103836
#        122455
#        136368
#        156493
#        170484
#        189681
#        201100
#        215761
#        226163
#        228593
#        244140
#        264218
#        277717
#        281316
#        290156
#        294817
#        308579
#        311348
#
# Disc length: 4329 seconds
#
# Revision: 0
# Processed by: cddbd v1.5.1PL0 Copyright (c) Steve Scherf et al.
# Submitted via: ExactAudioCopy v0.95a5
#
DISCID=8710e71b
DTITLE=GONZALO HATEM ALEMAN - SERENATA [FELIZ NAVIDAD Y AÑO NUEVO]
DYEAR=2004
DGENRE=BOLERO
TTITLE0=EN ESTA NOCHE NO FALTA NADIE
TTITLE1=PARA QUE ES LA NAVIDAD
TTITLE2=VEN A MI CASA ESTA NAVIDAD
TTITLE3=Y LE PIDO AL CREADOR [VIVE SIN MI]
TTITLE4=REFLEXION DE UN PADRE
TTITLE5=MI VIEJO
TTITLE6=NAVIDAD ES
TTITLE7=CAMINO DE LA VIDA
TTITLE8=LA NAVIDAD [HERE COME SANTA]
TTITLE9=A NACIDO EL NIÑO [NOCHE DE PAZ]
TTITLE10=FELIZ NAVIDAD
TTITLE11=UN NUEVO LIBRO
TTITLE12=HAY UNOS OJOS
TTITLE13=LLORANDO A CARCAJADAS [TE LLEGARA UNA ROSA]
TTITLE14=UN TANGO
TTITLE15=QUIEN ES MAMA [SU NOMBRE ES MI MADRE]
TTITLE16=PERMITEME SEÑOR
TTITLE17=UN CONJUNTO DE NOTAS
TTITLE18=LA FIGURA RESPETABLE [EL SEÑOR DE LAS CANAS]
TTITLE19=SIEMPRE TE RECORDARE
TTITLE20=CUANDO VUELVAS [NO ME QUEDA MAS]
TTITLE21=YO BRINDO
TTITLE22=NO TENEMOS CONTROL
TTITLE23=VRINDO POR MI FAMILIA
TTITLE24=HOY CORTE UNA FLOR
TTITLE25=LEVANTEMOS LA COPA
TTITLE26=POR UNOS OJOS NEGROS
EXTD=
EXTT0=
EXTT1=
EXTT2=
EXTT3=
EXTT4=
EXTT5=
EXTT6=
EXTT7=
EXTT8=
EXTT9=
EXTT10=
EXTT11=
EXTT12=
EXTT13=
EXTT14=
EXTT15=
EXTT16=
EXTT17=
EXTT18=
EXTT19=
EXTT20=
EXTT21=
EXTT22=
EXTT23=
EXTT24=
EXTT25=
EXTT26=
PLAYORDER=
